<!--?xml version="1.0" encoding="us-ascii" standalone="no"?--><svg xmlns="http://www.w3.org/2000/svg" xmlns:xlink="http://www.w3.org/1999/xlink" contentstyletype="text/css" height="1000px" preserveAspectRatio="none" style="width:360px;height:1000px;background:#FFFFFF;" version="1.1" viewBox="0 0 360 1000" width="360px" zoomAndPan="magnify"><defs></defs><g><!--cluster Publications Website--><g id="cluster_Publications Website"><rect fill="none" height="987" rx="2.5" ry="2.5" style="stroke:#181818;stroke-width:1.0;" width="253.96" x="101" y="7"></rect><text fill="#000000" font-family="sans-serif" font-size="14" font-weight="bold" lengthAdjust="spacing" textLength="164" x="145.98" y="21.9951">Publications Website</text></g><g id="elem_UC1"><ellipse cx="227.9768" cy="61.9974" fill="#F1F1F1" rx="87.0368" ry="19.8074" style="stroke:#181818;stroke-width:0.5;"></ellipse><text fill="#000000" font-family="sans-serif" font-size="14" lengthAdjust="spacing" textLength="135" x="160.4768" y="64.844">Search Publications</text></g><g id="elem_UC2"><ellipse cx="227.9773" cy="139.0035" fill="#F1F1F1" rx="99.0673" ry="22.2135" style="stroke:#181818;stroke-width:0.5;"></ellipse><text fill="#000000" font-family="sans-serif" font-size="14" lengthAdjust="spacing" textLength="162" x="146.9773" y="141.8501">View Publication Details</text></g><g id="elem_UC3"><ellipse cx="227.9833" cy="212.9967" fill="#F1F1F1" rx="70.4333" ry="16.4867" style="stroke:#181818;stroke-width:0.5;"></ellipse><text fill="#000000" font-family="sans-serif" font-size="14" lengthAdjust="spacing" textLength="94" x="177.9833" y="216.7442">Register User</text></g><g id="elem_UC4"><ellipse cx="227.9831" cy="278.9985" fill="#F1F1F1" rx="37.7231" ry="14.5485" style="stroke:#181818;stroke-width:0.5;"></ellipse><text fill="#000000" font-family="sans-serif" font-size="14" lengthAdjust="spacing" textLength="37" x="207.8716" y="282.3812">Login</text></g><g id="elem_UC5"><ellipse cx="227.9836" cy="342.9978" fill="#F1F1F1" rx="45.8836" ry="14.6478" style="stroke:#181818;stroke-width:0.5;"></ellipse><text fill="#000000" font-family="sans-serif" font-size="14" lengthAdjust="spacing" textLength="48" x="200.9836" y="346.7454">Logout</text></g><g id="elem_UC6"><ellipse cx="227.9828" cy="413.0026" fill="#F1F1F1" rx="87.9128" ry="19.9826" style="stroke:#181818;stroke-width:0.5;"></ellipse><text fill="#000000" font-family="sans-serif" font-size="14" lengthAdjust="spacing" textLength="137" x="159.4828" y="415.8492">Manage User Profile</text></g><g id="elem_UC7"><ellipse cx="227.9826" cy="490.0025" fill="#F1F1F1" rx="98.1626" ry="22.0325" style="stroke:#181818;stroke-width:0.5;"></ellipse><text fill="#000000" font-family="sans-serif" font-size="14" lengthAdjust="spacing" textLength="160" x="147.9826" y="492.8492">Manage User Accounts</text></g><g id="elem_UC8"><ellipse cx="227.9779" cy="571.0036" fill="#F1F1F1" rx="106.3679" ry="23.6736" style="stroke:#181818;stroke-width:0.5;"></ellipse><text fill="#000000" font-family="sans-serif" font-size="14" lengthAdjust="spacing" textLength="178" x="138.9779" y="573.8503">Manage User Publications</text></g><g id="elem_UC9"><ellipse cx="227.9803" cy="652.0041" fill="#F1F1F1" rx="99.5203" ry="22.3041" style="stroke:#181818;stroke-width:0.5;"></ellipse><text fill="#000000" font-family="sans-serif" font-size="14" lengthAdjust="spacing" textLength="163" x="146.4803" y="654.8507">Monitor Website Activity</text></g><g id="elem_UC10"><ellipse cx="227.9768" cy="728.9974" fill="#F1F1F1" rx="87.0368" ry="19.8074" style="stroke:#181818;stroke-width:0.5;"></ellipse><text fill="#000000" font-family="sans-serif" font-size="14" lengthAdjust="spacing" textLength="135" x="160.4768" y="731.844">Upload Publications</text></g><g id="elem_UC11"><ellipse cx="227.978" cy="802.9976" fill="#F1F1F1" rx="82.288" ry="18.8576" style="stroke:#181818;stroke-width:0.5;"></ellipse><text fill="#000000" font-family="sans-serif" font-size="14" lengthAdjust="spacing" textLength="124" x="165.1405" y="806.1238">Send Notifications</text></g><g id="elem_UC12"><ellipse cx="227.9791" cy="875.0018" fill="#F1F1F1" rx="78.5591" ry="18.1118" style="stroke:#181818;stroke-width:0.5;"></ellipse><text fill="#000000" font-family="sans-serif" font-size="14" lengthAdjust="spacing" textLength="115" x="168.2528" y="878.5425">Manage Content</text></g><g id="elem_UC13"><ellipse cx="227.9811" cy="952.9962" fill="#F1F1F1" rx="110.9811" ry="24.5962" style="stroke:#181818;stroke-width:0.5;"></ellipse><text fill="#000000" font-family="sans-serif" font-size="14" lengthAdjust="spacing" textLength="188" x="133.9811" y="955.8429">Handle User Authentication</text></g><!--entity U--><g id="elem_U"><ellipse cx="31.5" cy="216.35" fill="#F1F1F1" rx="8" ry="8" style="stroke:#181818;stroke-width:0.5;"></ellipse><path d="M31.5,224.35 L31.5,251.35 M18.5,232.35 L44.5,232.35 M31.5,251.35 L18.5,266.35 M31.5,251.35 L44.5,266.35 " fill="none" style="stroke:#181818;stroke-width:0.5;"></path><text fill="#000000" font-family="sans-serif" font-size="14" lengthAdjust="spacing" textLength="32" x="15.5" y="280.8451">User</text></g><!--entity A--><g id="elem_A"><ellipse cx="31.5" cy="541.35" fill="#F1F1F1" rx="8" ry="8" style="stroke:#181818;stroke-width:0.5;"></ellipse><path d="M31.5,549.35 L31.5,576.35 M18.5,557.35 L44.5,557.35 M31.5,576.35 L18.5,591.35 M31.5,576.35 L44.5,591.35 " fill="none" style="stroke:#181818;stroke-width:0.5;"></path><text fill="#000000" font-family="sans-serif" font-size="14" lengthAdjust="spacing" textLength="43" x="10" y="605.8451">Admin</text></g><!--entity AU--><g id="elem_AU"><ellipse cx="31.5" cy="699.35" fill="#F1F1F1" rx="8" ry="8" style="stroke:#181818;stroke-width:0.5;"></ellipse><path d="M31.5,707.35 L31.5,734.35 M18.5,715.35 L44.5,715.35 M31.5,734.35 L18.5,749.35 M31.5,734.35 L44.5,749.35 " fill="none" style="stroke:#181818;stroke-width:0.5;"></path><text fill="#000000" font-family="sans-serif" font-size="14" lengthAdjust="spacing" textLength="46" x="8.5" y="763.8451">Author</text></g><!--entity S--><g id="elem_S"><ellipse cx="31.5" cy="845.35" fill="#F1F1F1" rx="8" ry="8" style="stroke:#181818;stroke-width:0.5;"></ellipse><path d="M31.5,853.35 L31.5,880.35 M18.5,861.35 L44.5,861.35 M31.5,880.35 L18.5,895.35 M31.5,880.35 L44.5,895.35 " fill="none" style="stroke:#181818;stroke-width:0.5;"></path><text fill="#000000" font-family="sans-serif" font-size="14" lengthAdjust="spacing" textLength="51" x="6" y="909.8451">System</text></g><!--link U to UC1--><g id="link_U_UC1"><path d="M38.65,207.36 C45.96,174.04 61.39,127 93,99 C107.24,86.38 125.42,78.03 143.76,72.51 " fill="none" id="U-to-UC1" style="stroke:#181818;stroke-width:1.0;"></path><polygon fill="#181818" points="148.45,70.88,138.6985,69.4987,143.6413,72.2498,140.8902,77.1927,148.45,70.88" style="stroke:#181818;stroke-width:1.0;"></polygon></g><!--link U to UC2--><g id="link_U_UC2"><path d="M47.8,223.46 C58.8,208.85 74.85,190.46 93,179 C109.09,168.84 127.89,161.15 146.23,155.37 " fill="none" id="U-to-UC2" style="stroke:#181818;stroke-width:1.0;"></path><polygon fill="#181818" points="150.9,153.64,141.1251,152.4349,146.1168,155.0964,143.4553,160.088,150.9,153.64" style="stroke:#181818;stroke-width:1.0;"></polygon></g><!--link U to UC3--><g id="link_U_UC3"><path d="M47.76,243.41 C72.65,239.19 123.33,230.59 164.46,223.61 " fill="none" id="U-to-UC3" style="stroke:#181818;stroke-width:1.0;"></path><polygon fill="#181818" points="169.2,222.64,159.6614,220.1875,164.2692,223.4689,160.9877,228.0767,169.2,222.64" style="stroke:#181818;stroke-width:1.0;"></polygon></g><!--link U to UC4--><g id="link_U_UC4"><path d="M47.76,248.59 C77.5,253.64 144.06,264.93 187.16,272.24 " fill="none" id="U-to-UC4" style="stroke:#181818;stroke-width:1.0;"></path><polygon fill="#181818" points="191.82,273.2,183.6077,267.7633,186.8892,272.3711,182.2814,275.6525,191.82,273.2" style="stroke:#181818;stroke-width:1.0;"></polygon></g><!--link U to UC5--><g id="link_U_UC5"><path d="M47.98,268.5 C58.94,282.76 74.89,300.44 93,311 C118.64,325.95 150.91,333.93 177.36,338.18 " fill="none" id="U-to-UC5" style="stroke:#181818;stroke-width:1.0;"></path><polygon fill="#181818" points="182.25,339.08,173.9594,333.7634,177.3076,338.3229,172.7481,341.6712,182.25,339.08" style="stroke:#181818;stroke-width:1.0;"></polygon></g><!--link U to UC6--><g id="link_U_UC6"><path d="M41.34,284.63 C49.89,313.47 65.67,351.78 93,375 C107.69,387.49 126.24,395.88 144.8,401.52 " fill="none" id="U-to-UC6" style="stroke:#181818;stroke-width:1.0;"></path><polygon fill="#181818" points="149.56,403.18,142.0176,396.8466,144.7551,401.797,139.8047,404.5345,149.56,403.18" style="stroke:#181818;stroke-width:1.0;"></polygon></g><!--link A to UC7--><g id="link_A_UC7"><path d="M53.38,554.51 C64.62,546.26 79.01,536.63 93,530 C111.85,521.06 133.13,513.62 153.1,507.67 " fill="none" id="A-to-UC7" style="stroke:#181818;stroke-width:1.0;"></path><polygon fill="#181818" points="157.7,506.03,147.94,504.71,152.9,507.43,150.18,512.39,157.7,506.03" style="stroke:#181818;stroke-width:1.0;"></polygon></g><!--link A to UC8--><g id="link_A_UC8"><path d="M53.31,571 C68.92,571 91.61,571 115.48,571 " fill="none" id="A-to-UC8" style="stroke:#181818;stroke-width:1.0;"></path><polygon fill="#181818" points="120.24,571,111.24,567,115.24,571,111.24,575,120.24,571" style="stroke:#181818;stroke-width:1.0;"></polygon></g><!--link A to UC9--><g id="link_A_UC9"><path d="M53.38,587.49 C64.62,595.74 79.01,605.37 93,612 C111.64,620.84 132.68,628.22 152.46,634.14 " fill="none" id="A-to-UC9" style="stroke:#181818;stroke-width:1.0;"></path><polygon fill="#181818" points="157.01,635.77,149.49,629.41,152.21,634.37,147.25,637.09,157.01,635.77" style="stroke:#181818;stroke-width:1.0;"></polygon></g><!--link AU to UC10--><g id="link_AU_UC10"><path d="M54.81,729 C74.64,729 105.02,729 134.77,729 " fill="none" id="AU-to-UC10" style="stroke:#181818;stroke-width:1.0;"></path><polygon fill="#181818" points="139.71,729,130.71,725,134.71,729,130.71,733,139.71,729" style="stroke:#181818;stroke-width:1.0;"></polygon></g><!--link S to UC11--><g id="link_S_UC11"><path d="M57.3,858.15 C67.94,851.48 80.73,844.18 93,839 C114.18,830.05 138.2,822.77 159.99,817.16 " fill="none" id="S-to-UC11" style="stroke:#181818;stroke-width:1.0;"></path><polygon fill="#181818" points="164.78,815.7,155.0727,814.0359,159.9335,816.9295,157.0399,821.7903,164.78,815.7" style="stroke:#181818;stroke-width:1.0;"></polygon></g><!--link S to UC12--><g id="link_S_UC12"><path d="M57.13,875 C78.97,875 112.17,875 143.44,875 " fill="none" id="S-to-UC12" style="stroke:#181818;stroke-width:1.0;"></path><polygon fill="#181818" points="148.25,875,139.25,871,143.25,875,139.25,879,148.25,875" style="stroke:#181818;stroke-width:1.0;"></polygon></g><!--link S to UC13--><g id="link_S_UC13"><path d="M57.4,891.6 C68.06,898.23 80.84,905.56 93,911 C111.11,919.09 131.23,926.28 150.27,932.33 " fill="none" id="S-to-UC13" style="stroke:#181818;stroke-width:1.0;"></path><polygon fill="#181818" points="154.61,934,147.2239,927.485,149.8401,932.5005,144.8247,935.1168,154.61,934" style="stroke:#181818;stroke-width:1.0;"></polygon></g><!--SRC=[TP8nJyCm48Nt_8fJzqgaBRGiI54P601LH87PTTpq9DT6yGLK8VuxTcod3csb32ztdvvzxop5Ze0qjDZi2Mfi1IVKAcEST0kL4Iqm0rNuB-e3AbSeOg6ZlUwH8ZBbqP0uk5APEJUc6YbWikcs4ZbpvWO-nDOWYGdyP02T4PmPYvI2jNmFAJdfJr_dAVQEuZk5u54GGndPMSg-YGRjTVma0PYdmBDkK8N6ubz3TnGwjsddXIdM29_DfjKxb7OGpzrTumhETQV8H71vrN0ql8TN8rWhT3672AqpuHVICSBtALnzIitgYwRvpJXwLSEh9joTSVc5gwwr8g5eO4QPFp5LopYtVHyM3AO3xrPWlmgcquUmtgXdYPudUf5ejuxAIXzuqQlbe5Q3SbaK7kp7BRtCJt9salFizmy0]--></g></svg>